<svg width="9" height="15" viewBox="0 0 9 15" fill="none" xmlns="http://www.w3.org/2000/svg">
<path d="M7.80429 0.003121L5.85915 0C3.67385 0 2.26161 1.44892 2.26161 3.69152V5.39356H0.305855C0.136855 5.39356 0 5.53057 0 5.69957V8.16563C0 8.33463 0.137011 8.47149 0.305855 8.47149H2.26161V14.6941C2.26161 14.8631 2.39846 15 2.56746 15H5.11917C5.28817 15 5.42502 14.863 5.42502 14.6941V8.47149H7.71176C7.88076 8.47149 8.01761 8.33463 8.01761 8.16563L8.01855 5.69957C8.01855 5.61843 7.98625 5.54071 7.92898 5.48329C7.87171 5.42586 7.79368 5.39356 7.71254 5.39356H5.42502V3.95072C5.42502 3.25723 5.59028 2.90518 6.49364 2.90518L7.80398 2.90472C7.97283 2.90472 8.10968 2.7677 8.10968 2.59886V0.308979C8.10968 0.140289 7.97298 0.0034331 7.80429 0.003121Z" fill="white"/>
</svg>
