<svg width="17" height="15" viewBox="0 0 17 15" fill="none" xmlns="http://www.w3.org/2000/svg">
<path d="M11.42 10.2634C10.6878 10.2634 10.0907 9.67239 10.0907 8.94732C10.0907 8.22235 10.6878 7.63124 11.42 7.63124C12.1523 7.63124 12.7494 8.22235 12.7494 8.94732C12.7494 9.67239 12.1523 10.2634 11.42 10.2634ZM11.6548 12.4233C10.7465 13.32 9.00894 13.3908 8.49876 13.3908C7.98846 13.3908 6.24841 13.32 5.34259 12.4233C5.2075 12.2895 5.2075 12.0747 5.34259 11.9408C5.47789 11.8069 5.69475 11.8069 5.83005 11.9408C6.40146 12.5067 7.62365 12.7088 8.49876 12.7088C9.37137 12.7088 10.5959 12.5067 11.1676 11.9408C11.3027 11.8069 11.5195 11.8069 11.6548 11.9408C11.7875 12.0747 11.7875 12.2895 11.6548 12.4233ZM4.24294 8.94742C4.24294 8.22245 4.83998 7.63134 5.57231 7.63134C6.30455 7.63134 6.90158 8.22245 6.90158 8.94742C6.90158 9.67239 6.30455 10.2636 5.57231 10.2636C4.83998 10.2634 4.24294 9.67239 4.24294 8.94742ZM17 7.63134C17 6.61328 16.1683 5.78979 15.14 5.78979C14.6374 5.78979 14.1831 5.98673 13.849 6.30766C12.5784 5.39829 10.8257 4.81221 8.87374 4.744L9.72084 0.795648L12.4891 1.37926C12.5224 2.07649 13.0988 2.63227 13.8108 2.63227C14.5456 2.63227 15.1401 2.04362 15.1401 1.31608C15.1401 0.588646 14.5456 0 13.8108 0C13.2877 0 12.8412 0.30059 12.6243 0.735037L9.53199 0.0833145C9.44525 0.0656448 9.35602 0.0809517 9.28193 0.128824C9.20806 0.176799 9.1569 0.250046 9.13916 0.335929C9.13916 0.335929 8.21041 4.71626 8.21041 4.74153C6.22289 4.79197 4.43687 5.38062 3.14589 6.30262C2.81168 5.98436 2.36002 5.78979 1.86 5.78979C0.831738 5.78979 0 6.61575 0 7.63134C0 8.37901 0.451563 9.02324 1.09965 9.31109C1.07163 9.49313 1.05627 9.67989 1.05627 9.86943C1.05627 12.7037 4.38842 15 8.49876 15C12.609 15 15.9411 12.7037 15.9411 9.86943C15.9411 9.68246 15.9259 9.49806 15.8979 9.31623C16.5434 9.02827 17 8.38415 17 7.63134Z" fill="white"/>
</svg>
