<svg width="10" height="12" viewBox="0 0 10 12" fill="none" xmlns="http://www.w3.org/2000/svg">
<path d="M8.6743 2.40498V1.37177H2.18435L6.00327 5.62216C6.24235 5.88855 6.23912 6.30265 5.99563 6.56455L2.2198 10.6283H8.67416V10.0043C8.67416 9.62619 8.97144 9.31859 9.33692 9.31859C9.70229 9.31859 9.99986 9.62619 9.99986 10.0043V11.314C9.99986 11.6922 9.70243 12 9.33692 12H0.663039C0.397061 12 0.157547 11.8364 0.0532007 11.5828C-0.0511931 11.3294 0.000776283 11.0373 0.185136 10.8387L4.60574 6.08131L0.177568 1.15291C-0.00185807 0.952967 -0.049852 0.662266 0.055404 0.411937C0.16078 0.161707 0.399384 0 0.663039 0H9.33709C9.70243 0 10 0.307627 10 0.685983V2.40498C10 2.78314 9.70258 3.09089 9.33709 3.09089C8.97158 3.09089 8.6743 2.78329 8.6743 2.40498Z" fill="white"/>
</svg>
