<svg width="14" height="17" viewBox="0 0 14 17" fill="none" xmlns="http://www.w3.org/2000/svg">
<path d="M12.9244 3.03876H12.6808V2.54192C12.6808 2.11773 12.3357 1.7726 11.9115 1.7726H9.07098L8.72396 0.557925C8.63007 0.229443 8.32588 0 7.98425 0H5.20304C4.86138 0 4.55722 0.229443 4.46333 0.55796L4.11631 1.77264H1.27576C0.851572 1.77264 0.506443 2.11777 0.506443 2.54196V3.0388H0.262842C0.117683 3.0388 0 3.15648 0 3.30164C0 3.4468 0.117683 3.56448 0.262842 3.56448H0.779869L1.6989 15.0521C1.75158 15.7104 2.31017 16.2261 2.9706 16.2261H10.2167C10.8771 16.2261 11.4357 15.7104 11.4884 15.0521L12.4074 3.56448H12.9244C13.0696 3.56448 13.1873 3.4468 13.1873 3.30164C13.1873 3.15648 13.0696 3.03876 12.9244 3.03876ZM4.96879 0.702383C4.99851 0.598333 5.09485 0.525683 5.20304 0.525683H7.98425C8.09244 0.525683 8.18878 0.598333 8.2185 0.702383L8.52427 1.77264H4.66302L4.96879 0.702383ZM1.27576 2.29832H4.31996C4.32031 2.29832 4.3207 2.29832 4.32105 2.29832H8.87175C8.87203 2.29832 8.87231 2.29839 8.87259 2.29839C8.8729 2.29839 8.87325 2.29832 8.87357 2.29832H11.9115C12.0459 2.29832 12.1552 2.40763 12.1552 2.54196V3.0388H1.03213V2.54192C1.03213 2.40759 1.14143 2.29832 1.27576 2.29832ZM10.9644 15.0101C10.9334 15.3972 10.605 15.7004 10.2167 15.7004H2.9706C2.5823 15.7004 2.25388 15.3972 2.2229 15.0101L1.30723 3.56445H11.88L10.9644 15.0101Z" fill="white"/>
<path d="M6.59341 14.9599C6.73857 14.9599 6.85625 14.8422 6.85625 14.697V4.82095C6.85625 4.67579 6.73857 4.55811 6.59341 4.55811C6.44825 4.55811 6.33057 4.67579 6.33057 4.82095V14.697C6.33057 14.8422 6.44825 14.9599 6.59341 14.9599Z" fill="white"/>
<path d="M4.05227 14.7105C4.05949 14.8509 4.17556 14.9599 4.31456 14.9599C4.31908 14.9599 4.32367 14.9598 4.32826 14.9595C4.47324 14.9521 4.58472 14.8285 4.57729 14.6835L4.07078 4.80749C4.06335 4.66251 3.94016 4.55099 3.79479 4.55846C3.64981 4.56589 3.53833 4.68946 3.54576 4.83444L4.05227 14.7105Z" fill="white"/>
<path d="M8.85925 14.9595C8.86384 14.9598 8.86839 14.9599 8.87295 14.9599C9.01194 14.9599 9.12801 14.8509 9.13523 14.7105L9.64171 4.83444C9.64914 4.68946 9.53766 4.56592 9.39267 4.55846C9.24737 4.55103 9.12415 4.66254 9.11669 4.80749L8.61021 14.6835C8.60282 14.8285 8.7143 14.9521 8.85925 14.9595Z" fill="white"/>
</svg>
