<svg width="18" height="15" viewBox="0 0 18 15" fill="none" xmlns="http://www.w3.org/2000/svg">
<path d="M17 2.539C16.405 2.8 15.771 2.973 15.11 3.057C15.79 2.651 16.309 2.013 16.553 1.244C15.919 1.622 15.219 1.889 14.473 2.038C13.871 1.397 13.013 1 12.077 1C10.261 1 8.799 2.474 8.799 4.281C8.799 4.541 8.821 4.791 8.875 5.029C6.148 4.896 3.735 3.589 2.114 1.598C1.831 2.089 1.665 2.651 1.665 3.256C1.665 4.392 2.25 5.399 3.122 5.982C2.595 5.972 2.078 5.819 1.64 5.578C1.64 5.588 1.64 5.601 1.64 5.614C1.64 7.208 2.777 8.532 4.268 8.837C4.001 8.91 3.71 8.945 3.408 8.945C3.198 8.945 2.986 8.933 2.787 8.889C3.212 10.188 4.418 11.143 5.852 11.174C4.736 12.047 3.319 12.573 1.785 12.573C1.516 12.573 1.258 12.561 1 12.528C2.453 13.465 4.175 14 6.032 14C12.068 14 15.368 9 15.368 4.666C15.368 4.521 15.363 4.381 15.356 4.242C16.007 3.78 16.554 3.203 17 2.539Z" fill="white"/>
</svg>
