<svg width="18" height="13" viewBox="0 0 18 13" fill="none" xmlns="http://www.w3.org/2000/svg">
<path d="M7.18215 9.29276L11.8735 6.50047L7.18215 3.70817V9.29276ZM17.6205 2.00673C17.7332 2.44326 17.817 3.0315 17.8729 3.77332C17.9297 4.51514 17.9585 5.16202 17.9585 5.7149L18 6.50047C18 8.53698 17.8738 10.0346 17.6196 10.9942C17.3942 11.8375 16.8731 12.3764 16.0564 12.6091C15.6336 12.7254 14.8385 12.812 13.6693 12.8697C12.5925 12.9258 11.5146 12.9553 10.4365 12.9581L8.99955 13C5.22412 13 2.87214 12.8697 1.94271 12.6072C1.12596 12.3745 0.604898 11.8365 0.379526 10.9933C0.265939 10.5567 0.181199 9.9685 0.125307 9.22668C0.0729299 8.58085 0.0446625 7.93318 0.040567 7.2851L0 6.50047C0 4.46395 0.126208 2.96635 0.379526 2.00673C0.604898 1.16346 1.12686 0.625475 1.94361 0.392783C2.3664 0.276438 3.16152 0.188015 4.33075 0.130307C5.4075 0.0748102 6.48539 0.0459483 7.56348 0.0437464L8.99955 0C12.775 0 15.127 0.130307 16.0564 0.391852C16.8731 0.624544 17.3951 1.16346 17.6205 2.00673Z" fill="white"/>
</svg>
