  <svg
    width="20"
    height="20"
    viewBox="0 0 20 20"
    fill="none"
    xmlns="http://www.w3.org/2000/svg"
  >
    <g clip-path="url(#clip0)">
      <path
        d="M13.4648 11.7344L13.4141 11.7109C13.293 11.6562 13.168 11.6016 13.043 11.5547C12.9063 11.5 12.7656 11.4492 12.625 11.4023C12.5156 11.3672 12.4023 11.332 12.2891 11.2969C12.1172 11.2461 11.9414 11.2031 11.7617 11.1641C11.6992 11.1523 11.6406 11.1406 11.5781 11.1289L11.5352 11.1211C11.4297 11.1016 11.3242 11.082 11.2148 11.0664L11.1836 11.0625H11.1797L11.1484 11.0586C11.0586 11.0469 10.9688 11.0313 10.8789 11.0234L10.5625 10.9961C10.1758 10.9688 9.77734 10.9727 9.39453 11L9.28125 11.0078L9.23047 11.0117L9.10156 11.0234C8.98047 11.0352 8.86328 11.0508 8.74219 11.0703L8.70703 11.0742C8.625 11.0859 8.54297 11.1016 8.46484 11.1172C8.375 11.1328 8.28906 11.1523 8.19922 11.168C8.03125 11.207 7.85938 11.25 7.69922 11.2969C7.57031 11.3359 7.44141 11.375 7.32031 11.418L7.23828 11.4492C6.98438 11.5391 6.73047 11.6445 6.48438 11.7578L6.41797 11.7891C3.54688 13.1641 1.69141 16.0977 1.69141 19.2773C1.69141 19.3516 1.69531 19.4219 1.69922 19.4961L1.72266 20H18.2734L18.2969 19.5C18.3008 19.4258 18.3047 19.3516 18.3047 19.2773C18.3086 16.0469 16.4063 13.0898 13.4648 11.7344ZM2.50391 19.1875C2.53906 16.332 4.22656 13.7109 6.80078 12.5039L6.88281 12.4727L6.89063 12.4648C7.09375 12.3711 7.30078 12.2891 7.51172 12.2148L7.57813 12.1914C7.69141 12.1523 7.80859 12.1133 7.92578 12.082C8.07422 12.0391 8.22656 12 8.375 11.9648C8.45313 11.9492 8.53125 11.9336 8.61328 11.918C8.67578 11.9062 8.74219 11.8945 8.80469 11.8828L8.83594 11.8789C8.95313 11.8594 9.07031 11.8438 9.1836 11.832L9.44922 11.8086C9.79688 11.7812 10.1289 11.7812 10.5313 11.8086L10.7891 11.832C10.8516 11.8398 10.918 11.8477 10.9922 11.8594L11.0859 11.8711C11.1836 11.8867 11.2813 11.9023 11.3789 11.9219L11.4258 11.9297C11.4805 11.9414 11.5352 11.9492 11.5859 11.9609C11.7461 11.9961 11.9023 12.0391 12.0586 12.082C12.1602 12.1133 12.2656 12.1445 12.3633 12.1758C12.4883 12.2188 12.6133 12.2656 12.7383 12.3125C12.8555 12.3594 12.9727 12.4102 13.0898 12.4609L13.1094 12.4688C15.7422 13.6758 17.4531 16.3047 17.4883 19.1914L2.50391 19.1875ZM7.99609 9.94922C8.05859 9.97656 8.12109 9.99609 8.18359 10.0195L8.31641 10.0664C8.36719 10.0859 8.41797 10.1055 8.46875 10.1211C8.95313 10.2734 9.45703 10.3516 9.97266 10.3555H10.0117C10.1875 10.3555 10.3633 10.3477 10.5352 10.3281C10.5938 10.3242 10.6484 10.3125 10.707 10.3047L10.8359 10.2852C10.9063 10.2773 10.9805 10.2656 11.0547 10.25C11.1055 10.2383 11.1563 10.2266 11.2031 10.2109L11.3438 10.1758C11.4141 10.1602 11.4805 10.1406 11.5469 10.1211C11.5898 10.1094 11.6289 10.0938 11.6719 10.0781L11.7852 10.0391C11.8633 10.0117 11.9453 9.98438 12.0234 9.94922C12.0547 9.9375 12.0859 9.92188 12.1133 9.90625L12.1484 9.88672C12.2578 9.83594 12.3672 9.78906 12.4766 9.73047L12.5469 9.6875C12.668 9.61719 12.7891 9.54688 12.9141 9.46484C12.9766 9.42188 13.0391 9.375 13.0977 9.32422L13.3047 9.16406C14.5 8.17578 15.1836 6.72266 15.1836 5.21875L15.1875 5.17578C15.1914 2.32422 12.8672 0 10.0117 0C7.28516 0 5.01953 2.13281 4.84766 4.85156L4.84375 4.91797C4.83594 5.00391 4.83203 5.08984 4.83203 5.17578C4.83203 7.26562 6.07422 9.13672 7.99609 9.94922ZM5.65234 4.97656L5.65625 4.90234C5.80078 2.60938 7.71094 0.8125 10.0078 0.8125C12.418 0.8125 14.375 2.76953 14.375 5.14062L14.3711 5.18359C14.3711 6.48438 13.7891 7.70703 12.7773 8.54688L12.5859 8.69531C12.543 8.73047 12.5 8.76562 12.4453 8.80078C12.3477 8.86719 12.2461 8.92578 12.1406 8.98438L12.082 9.01953C11.9961 9.06641 11.9023 9.10938 11.8047 9.15234L11.6953 9.20312C11.6328 9.23047 11.5703 9.25 11.5039 9.27344L11.3711 9.32031C11.3438 9.32812 11.3203 9.33984 11.293 9.34766C11.2422 9.36328 11.1914 9.375 11.1406 9.38672L10.9805 9.42969C10.9453 9.4375 10.9102 9.44922 10.8789 9.45703C10.8242 9.46875 10.7695 9.47656 10.7148 9.48438L10.5625 9.50781C10.5234 9.51562 10.4883 9.51953 10.4453 9.52344C10.3086 9.53906 10.1758 9.54688 10.0352 9.54688H9.99609C9.55078 9.54688 9.11719 9.48047 8.69922 9.35156C8.66406 9.33984 8.62891 9.32422 8.59375 9.3125L8.44141 9.25781C8.39453 9.24219 8.34766 9.22656 8.30078 9.20703C6.67969 8.52344 5.63281 6.94141 5.63281 5.18359C5.64453 5.10938 5.64844 5.04297 5.65234 4.97656Z"
        fill="white"
        stroke="white"
        stroke-miterlimit="10"
      />
    </g>
    <defs>
      <clipPath id="clip0">
        <rect width="20" height="20" fill="white" />
      </clipPath>
    </defs>
  </svg>

