  <svg
    width="23"
    height="21"
    viewBox="0 0 23 21"
    fill="none"
    xmlns="http://www.w3.org/2000/svg"
  >
    <path
      d="M1 1H3.6882"
      stroke="#FFFFFF"
      stroke-width="1.5"
      stroke-miterlimit="10"
      stroke-linecap="round"
    />
    <path
      d="M3.68823 1.04834L8.32306 17.1644"
      stroke="#FFFFFF"
      stroke-width="1.5"
      stroke-miterlimit="10"
    />
    <path
      d="M4.04358 4.07812H22.2276"
      stroke="#FFFFFF"
      stroke-width="1.5"
      stroke-miterlimit="10"
      stroke-linejoin="round"
    />
    <path
      d="M18.5198 13.9895L21.5015 4.64221"
      stroke="#FFFFFF"
      stroke-width="1.5"
      stroke-miterlimit="10"
    />
    <path
      d="M7.21069 13.4255H19.1377"
      stroke="#FFFFFF"
      stroke-width="1.5"
      stroke-miterlimit="10"
    />
    <path
      d="M8.75567 19.5012C9.50653 19.5012 10.1152 18.8663 10.1152 18.083C10.1152 17.2998 9.50653 16.6648 8.75567 16.6648C8.00481 16.6648 7.39612 17.2998 7.39612 18.083C7.39612 18.8663 8.00481 19.5012 8.75567 19.5012Z"
      stroke="#FFFFFF"
      stroke-width="1.5"
      stroke-miterlimit="10"
    />
    <path
      d="M18.0253 19.5012C18.7762 19.5012 19.3849 18.8663 19.3849 18.083C19.3849 17.2998 18.7762 16.6648 18.0253 16.6648C17.2745 16.6648 16.6658 17.2998 16.6658 18.083C16.6658 18.8663 17.2745 19.5012 18.0253 19.5012Z"
      stroke="#FFFFFF"
      stroke-width="1.5"
      stroke-miterlimit="10"
    />
    <path
      d="M9.96069 17.1805H16.9593"
      stroke="#FFFFFF"
      stroke-width="1.5"
      stroke-miterlimit="10"
    />
  </svg>
