  <svg
    width="20"
    height="20"
    viewBox="0 0 20 20"
    fill="none"
    xmlns="http://www.w3.org/2000/svg"
  >
    <g clip-path="url(#clip0)">
      <path
        d="M10 0C4.48595 0 0 4.48595 0 10C0 15.5141 4.48595 20 10 20C15.5141 20 20 15.5141 20 10C20 4.48595 15.514 0 10 0ZM15.733 2.75718C16.2303 3.15162 16.686 3.59612 17.0928 4.08291C16.877 4.04518 16.675 4.04918 16.4857 4.09551C16.1194 4.18508 15.8274 4.43001 15.6414 4.80367C15.5974 4.89202 15.5067 4.943 15.4092 4.93238C15.294 4.92029 15.205 4.82759 15.202 4.71678C15.1823 3.96613 15.5091 3.19445 15.733 2.75718ZM3.63279 3.3082C4.42981 2.54951 5.36172 1.93148 6.38835 1.4939C6.81192 1.7836 7.98168 2.63929 8.84597 3.79929C8.95202 3.94161 8.98763 4.12165 8.94368 4.29331C8.89973 4.46511 8.78179 4.60612 8.62015 4.68006C7.71085 5.09619 6.50589 5.74159 5.92953 6.45334C5.79601 6.61832 5.58035 6.69201 5.37977 6.64113C4.61062 6.44601 3.99264 6.67886 3.63962 7.29664C3.19374 8.07676 3.81532 8.83595 4.36376 9.50583C4.42617 9.58204 4.48883 9.65867 4.55033 9.73544C3.97453 9.39355 3.53437 8.95132 3.23916 8.41471C2.72976 7.48852 2.38914 5.85275 3.63279 3.3082ZM0.758633 10C0.758633 8.18616 1.28426 6.49299 2.19068 5.06403C1.80105 6.76933 2.13899 7.98856 2.57445 8.78037C3.03898 9.62468 3.78351 10.2725 4.78743 10.7057C4.99403 10.7949 5.14859 10.976 5.20094 11.1904C5.20094 11.1904 5.22268 11.2839 5.23199 11.3302C5.30158 11.6758 5.35428 12.1904 5.27776 12.8477C5.16523 13.8186 5.59684 14.7714 6.40403 15.3342L7.15932 15.8612C7.11219 16.3995 7.04679 17.7585 7.43754 18.8797C3.58444 17.766 0.758633 14.2069 0.758633 10ZM18.9805 11.5455C18.958 11.1473 18.7672 10.7749 18.4569 10.5239C18.1502 10.2757 17.7518 10.1681 17.3638 10.2283L17.3309 10.2333C17.0348 10.2765 16.7396 10.2007 16.5002 10.0198C16.2567 9.83563 16.1003 9.56657 16.0601 9.26215C16.0159 8.92719 16.0003 8.60659 16.0136 8.30921C16.0231 8.09993 15.861 7.92266 15.6518 7.91325C15.4424 7.90369 15.2652 8.06584 15.2558 8.27512C15.2404 8.61686 15.258 8.98232 15.308 9.36143C15.375 9.86876 15.6359 10.3175 16.0428 10.625C16.4453 10.9293 16.9416 11.0567 17.4407 10.9839L17.4805 10.9779C17.6599 10.9501 17.8372 10.9983 17.9798 11.1137C18.1241 11.2303 18.2127 11.4033 18.2232 11.5883C18.2601 12.2418 18.4001 12.8097 18.6394 13.2802C17.3131 16.7613 13.941 19.2413 10 19.2413C9.63838 19.2413 9.28178 19.2197 8.93088 19.1791C9.05692 19.0508 9.20753 18.896 9.38576 18.7109C9.53106 18.56 9.52646 18.3199 9.37554 18.1746C9.22463 18.0294 8.98444 18.0339 8.83924 18.1848C8.57594 18.4584 8.37329 18.665 8.22318 18.8161C7.70271 17.595 7.93328 15.7478 7.93591 15.7272C7.95427 15.5869 7.89292 15.448 7.77685 15.367L6.83807 14.7119C6.26014 14.309 5.95102 13.6281 6.03139 12.9352C6.0943 12.394 6.08586 11.8642 6.00999 11.3798C6.67739 11.2 7.32526 11.1052 7.77746 11.0563C8.10989 11.0206 8.43762 11.131 8.67583 11.3595C9.22569 11.8872 10.0771 12.5025 11.2063 13.1883C11.5413 13.3918 11.7716 13.7304 11.8378 14.1172C11.9038 14.5027 11.7999 14.8971 11.5527 15.1991C11.2158 15.6107 10.8037 16.0841 10.328 16.6061C10.1869 16.7609 10.198 17.0008 10.3528 17.1419C10.4255 17.2082 10.517 17.2409 10.6082 17.2409C10.7112 17.2409 10.8138 17.1992 10.8887 17.1171C11.3734 16.5852 11.7943 16.1015 12.1398 15.6795C12.5261 15.2075 12.6886 14.5914 12.5855 13.9892C12.4821 13.3857 12.1229 12.8575 11.6 12.5399C10.5333 11.8921 9.70383 11.2946 9.20096 10.8121C8.80055 10.4281 8.25216 10.2422 7.69598 10.3021C7.23827 10.3516 6.5909 10.4455 5.91259 10.6208C5.77522 10.0327 5.3428 9.50421 4.95069 9.02531C4.44367 8.40601 4.12428 7.97733 4.29816 7.67307C4.41039 7.47674 4.62524 7.23235 5.19315 7.37655C5.67938 7.49985 6.1999 7.32491 6.51899 6.93077C6.89648 6.46467 7.75475 5.91036 8.93574 5.36991C9.30671 5.20018 9.57744 4.87634 9.67854 4.4815C9.77959 4.08686 9.69786 3.673 9.45429 3.34608C8.73212 2.3768 7.83602 1.61933 7.24854 1.17694C8.11798 0.905252 9.04215 0.758684 9.9999 0.758684C11.8889 0.758684 13.6471 1.32882 15.1122 2.30549C14.8519 2.79066 14.4177 3.75321 14.4437 4.7368C14.4565 5.22663 14.8375 5.63513 15.3298 5.68692C15.3639 5.69051 15.398 5.69228 15.432 5.69228C15.8037 5.69228 16.1521 5.48001 16.3205 5.14186C16.448 4.8858 16.612 4.84564 16.6659 4.83244C16.8351 4.79107 17.222 4.80088 17.942 5.303C17.7873 5.30568 17.6077 5.29956 17.4128 5.27554C17.1235 5.23988 16.8366 5.31225 16.6047 5.479C16.4526 5.58819 16.3083 5.7163 16.1755 5.85968C16.0332 6.01343 16.0424 6.25341 16.1961 6.39573C16.269 6.4633 16.3615 6.49673 16.4537 6.49673C16.5557 6.49673 16.6574 6.45587 16.7321 6.37515C16.8304 6.26894 16.9365 6.17472 17.0474 6.09501C17.1241 6.03983 17.2212 6.01616 17.3201 6.02845C17.7432 6.0806 18.1075 6.06335 18.3477 6.03781C18.9203 7.23928 19.2413 8.58282 19.2413 10C19.2413 10.6818 19.1665 11.3463 19.0257 11.9864C19.0043 11.8459 18.9892 11.6989 18.9805 11.5455Z"
        fill="white"
        stroke="white"
        stroke-width="0.5"
      />
      <path
        d="M10.2312 17.4998C10.222 17.477 10.2105 17.4548 10.1968 17.4345C10.1826 17.4133 10.1669 17.3941 10.1493 17.3769C10.132 17.3592 10.1128 17.3435 10.0916 17.3294C10.0714 17.3157 10.0491 17.3041 10.0263 17.2945C10.0036 17.2854 9.97928 17.2778 9.95556 17.2732C9.90646 17.2631 9.85588 17.2631 9.80687 17.2732C9.7831 17.2778 9.75883 17.2854 9.73612 17.2945C9.71336 17.3041 9.69105 17.3157 9.67088 17.3294C9.65014 17.3435 9.63036 17.3592 9.61317 17.3769C9.59547 17.3941 9.57979 17.4133 9.56568 17.4345C9.55197 17.4548 9.54039 17.477 9.53078 17.4998C9.52168 17.5225 9.51409 17.5468 9.50954 17.5706C9.50448 17.5954 9.50195 17.6202 9.50195 17.6449C9.50195 17.6697 9.50453 17.6945 9.50954 17.7188C9.51409 17.7431 9.52168 17.7668 9.53078 17.7901C9.54039 17.8129 9.55202 17.8346 9.56568 17.8553C9.57979 17.8761 9.59552 17.8958 9.61317 17.913C9.63036 17.9307 9.65009 17.9464 9.67088 17.96C9.69105 17.9737 9.71336 17.9858 9.73612 17.9949C9.75883 18.0045 9.78315 18.0116 9.80687 18.0167C9.83165 18.0217 9.85644 18.0243 9.88122 18.0243C9.906 18.0243 9.93078 18.0217 9.95562 18.0167C9.97939 18.0116 10.0036 18.0045 10.0264 17.9949C10.0491 17.9858 10.0714 17.9737 10.0916 17.96C10.1129 17.9464 10.1321 17.9307 10.1493 17.913C10.167 17.8958 10.1826 17.8761 10.1968 17.8553C10.2105 17.8346 10.2221 17.8129 10.2312 17.7901C10.2408 17.7668 10.2484 17.7431 10.253 17.7188C10.2581 17.6945 10.2605 17.6697 10.2605 17.6449C10.2605 17.6202 10.258 17.5954 10.253 17.5706C10.2484 17.5468 10.2408 17.5225 10.2312 17.4998Z"
        fill="white"
        stroke="white"
        stroke-width="0.5"
      />
      <path
        d="M11.809 1.69019C11.7475 1.63486 11.1536 1.14499 9.26024 0.987245C8.98101 0.963879 8.86297 1.15025 8.83338 1.20786C8.69496 1.47727 8.86783 1.68048 9.12945 1.98814C9.43169 2.34348 9.93755 2.93825 10.0158 3.53848C10.0357 3.69071 10.1454 3.81599 10.2936 3.85574C10.3262 3.86449 10.3592 3.86874 10.3919 3.86874C10.508 3.86874 10.6201 3.81523 10.6929 3.7202L11.8562 2.20293C11.9767 2.04584 11.9561 1.8226 11.809 1.69019ZM10.5333 2.68173C10.3808 2.36371 10.1802 2.07892 9.99222 1.84086C10.4564 1.919 10.7744 2.0159 10.9816 2.09697L10.5333 2.68173Z"
        fill="white"
        stroke="white"
        stroke-width="0.5"
      />
      <path
        d="M16.0485 6.85255C16.0277 6.83889 16.006 6.82726 15.9828 6.81765C15.96 6.80804 15.9362 6.80096 15.9119 6.7959C15.8629 6.78629 15.8128 6.78629 15.7638 6.7959C15.7395 6.80096 15.7157 6.80804 15.693 6.81765C15.6697 6.82726 15.6479 6.83889 15.6272 6.85255C15.6065 6.8662 15.5873 6.88239 15.5695 6.89958C15.5524 6.91728 15.5362 6.9365 15.5225 6.95724C15.5088 6.97798 15.4972 7.00023 15.4876 7.02299C15.478 7.04575 15.4709 7.06952 15.4658 7.09379C15.4613 7.11857 15.4587 7.14336 15.4587 7.16814C15.4587 7.19292 15.4613 7.2177 15.4658 7.24198C15.4708 7.2662 15.4779 7.29003 15.4876 7.31329C15.4971 7.33605 15.5088 7.3578 15.5224 7.37853C15.5361 7.39927 15.5523 7.41849 15.5695 7.43619C15.6403 7.50699 15.7379 7.54745 15.8381 7.54745C15.8623 7.54745 15.8876 7.54493 15.9119 7.53987C15.9362 7.53481 15.9599 7.52773 15.9827 7.51812C16.006 7.50902 16.0277 7.49688 16.0484 7.48322C16.0692 7.46957 16.0884 7.45389 16.1061 7.43619C16.1233 7.41849 16.1395 7.39927 16.1532 7.37853C16.1668 7.3578 16.1785 7.33605 16.188 7.31329C16.1976 7.29003 16.2047 7.26625 16.2098 7.24198C16.2149 7.2177 16.2169 7.19292 16.2169 7.16814C16.2169 7.068 16.1765 6.97039 16.1062 6.89958C16.0885 6.88239 16.0693 6.8662 16.0485 6.85255Z"
        fill="white"
        stroke="white"
        stroke-width="0.5"
      />
    </g>
    <defs>
      <clipPath id="clip0">
        <rect width="20" height="20" fill="white" />
      </clipPath>
    </defs>
  </svg>
