  <svg
    width="24"
    height="24"
    viewBox="0 0 24 24"
    fill="none"
    xmlns="http://www.w3.org/2000/svg"
  >
    <path
      d="M5.56757 7.64264L6.16154 8.23661L7.77374 6.6244C8.08346 6.66259 8.26589 6.72623 8.49923 6.95957C8.65197 7.11231 8.65621 7.31171 8.44408 7.52384L6.94643 9.0215L7.5404 9.61547L9.03381 8.12206C9.05502 8.10084 9.14836 7.99902 9.16533 7.98205C9.45383 8.0075 9.66596 8.1263 9.89506 8.3554C10.0436 8.50389 10.0478 8.7033 9.83567 8.91543L8.33801 10.4131L8.93198 11.0071L10.4212 9.51788C10.8794 9.05968 11.0363 8.54632 10.5399 8.04993C10.192 7.70203 9.789 7.58748 9.4411 7.52809C9.52595 7.25656 9.43262 6.9426 9.14836 6.65834C8.8047 6.31469 8.51196 6.28499 8.16831 6.22984L8.29983 5.86921L7.82041 5.38979L5.56757 7.64264ZM10.383 10.184C9.55565 11.0113 9.39443 11.5119 9.96719 12.0847C10.3193 12.4368 10.803 12.9205 11.24 13.1199L11.6388 12.7211C11.2739 12.4495 11.1085 12.2841 10.7648 11.9404C10.4466 11.6222 10.3151 11.4398 10.7224 11.0325L11.4394 11.7495C11.8467 12.1568 12.2285 12.2162 12.6316 11.8132C13.3783 11.0664 13.1534 10.6889 12.5 10.0355C11.7873 9.32272 11.3503 9.21666 10.383 10.184ZM11.1509 10.604C11.6303 10.1161 11.7703 10.2137 12.0843 10.5276C12.3685 10.8119 12.3516 10.9052 12.0673 11.1895C11.9612 11.2956 11.8382 11.2913 11.7152 11.1683L11.1509 10.604ZM11.5089 13.584L12.1029 14.178L13.7193 12.5615C14.0291 12.5997 14.22 12.6718 14.4618 12.9137C14.6103 13.0621 14.6273 13.2403 14.4024 13.4652L12.8963 14.9713L13.4902 15.5653L14.9879 14.0677C15.4164 13.6391 15.6328 13.1258 15.1109 12.6039C14.7673 12.2603 14.4491 12.2221 14.1139 12.1669L14.2412 11.8106L13.7618 11.3311L11.5089 13.584ZM14.5586 15.1317C14.13 15.5602 13.9179 16.0693 14.444 16.5954C14.7877 16.9391 15.0762 16.9476 15.4325 17.0324L15.3137 17.3888L15.7889 17.864L18.0418 15.6111L17.4478 15.0172L15.8271 16.6379C15.5216 16.5954 15.3265 16.5276 15.0889 16.29C14.9404 16.1415 14.9192 15.959 15.144 15.7342L16.6544 14.2238L16.0604 13.6298L14.5586 15.1317Z"
      fill="white"
    />
    <rect
      x="12.4141"
      width="15"
      height="2"
      transform="rotate(45 12.4141 0)"
      fill="white"
    />
    <rect
      x="1.41406"
      y="11"
      width="15"
      height="2"
      transform="rotate(45 1.41406 11)"
      fill="white"
    />
  </svg>
