<svg width="132" height="29" viewBox="0 0 132 29" fill="none" xmlns="http://www.w3.org/2000/svg">
<path d="M12.1786 25.0145C10.7185 25.0145 9.36671 24.7413 8.1267 24.1915C6.88669 23.6416 5.81085 22.8921 4.89918 21.9359C3.98751 20.9832 3.27494 19.8485 2.76496 18.5386C2.25499 17.2287 2 15.8102 2 14.2901C2 12.7491 2.25499 11.3411 2.76496 10.0697C3.27494 8.79835 3.98401 7.7126 4.89918 6.81948C5.81085 5.92286 6.88669 5.22939 8.1267 4.73905C9.36671 4.24871 10.715 4.00354 12.1786 4.00354H23.5378V7.67407H12.1786C11.2355 7.67407 10.3657 7.84219 9.5693 8.17842C8.7729 8.51465 8.08478 8.98397 7.50844 9.57938C6.9321 10.1783 6.47801 10.8893 6.15316 11.7194C5.82482 12.5494 5.66414 13.4636 5.66414 14.4653C5.66414 15.4494 5.82831 16.3636 6.15316 17.2111C6.47801 18.0587 6.9321 18.7872 7.50844 19.3932C8.08478 19.9991 8.7729 20.4754 9.5693 20.8256C10.3657 21.1724 11.2355 21.3475 12.1786 21.3475H23.5378V25.018H12.1786V25.0145Z" fill="white"/>
<path d="M36.0775 25.0145C34.6174 25.0145 33.2656 24.7413 32.0256 24.1915C30.7856 23.6416 29.7098 22.8921 28.7981 21.9359C27.8864 20.9832 27.1739 19.8485 26.6639 18.5386C26.1539 17.2287 25.8989 15.8102 25.8989 14.2901C25.8989 12.7491 26.1539 11.3411 26.6639 10.0697C27.1739 8.79835 27.8829 7.7126 28.7981 6.81948C29.7098 5.92286 30.7856 5.22939 32.0256 4.73905C33.2656 4.24871 34.6139 4.00354 36.0775 4.00354H41.1807C42.7002 4.00354 44.0869 4.25571 45.3479 4.75656C46.6054 5.2574 47.6882 5.96139 48.5894 6.86501C49.4941 7.77214 50.1927 8.85439 50.6922 10.1153C51.1917 11.3761 51.4431 12.7701 51.4431 14.2936C51.4431 15.8172 51.1882 17.2322 50.6782 18.5421C50.1682 19.852 49.4591 20.9832 48.544 21.9394C47.6323 22.8921 46.5495 23.6451 45.3025 24.195C44.052 24.7448 42.6792 25.018 41.1807 25.018H36.0775V25.0145ZM41.1773 21.344C42.1378 21.344 43.0216 21.1689 43.8284 20.8221C44.6353 20.4754 45.3304 19.9991 45.9172 19.3896C46.5041 18.7837 46.9581 18.0552 47.2865 17.2076C47.6113 16.3601 47.7755 15.4459 47.7755 14.4618C47.7755 13.4776 47.6113 12.5669 47.2865 11.7299C46.9581 10.8928 46.5041 10.1748 45.9172 9.57588C45.3304 8.98047 44.6353 8.51115 43.8284 8.17492C43.0216 7.83868 42.1378 7.67057 41.1773 7.67057H36.074C35.1309 7.67057 34.2611 7.83868 33.4647 8.17492C32.6683 8.51115 31.9802 8.98047 31.4039 9.57588C30.8275 10.1748 30.3769 10.8858 30.0486 11.7159C29.7203 12.5459 29.5596 13.4601 29.5596 14.4618C29.5596 15.4459 29.7237 16.3601 30.0486 17.2076C30.3734 18.0552 30.8275 18.7837 31.4039 19.3896C31.9802 19.9956 32.6683 20.4719 33.4647 20.8221C34.2611 21.1689 35.1309 21.344 36.074 21.344H41.1773Z" fill="white"/>
<path d="M73.8681 25.0145L68.5623 19.176H60.7205V15.9398H69.4565C70.7838 15.9398 71.7828 15.579 72.4535 14.8575C73.1276 14.136 73.4629 13.0888 73.4629 11.7229C73.4629 10.3534 73.1136 9.33772 72.4115 8.67226C71.7094 8.0068 70.7244 7.67407 69.4565 7.67407H58.0414V25.018H54.4087V4.00354H69.4565C70.6476 4.00354 71.7129 4.18216 72.656 4.53941C73.5991 4.89666 74.3955 5.40801 75.0487 6.06996C75.7019 6.73542 76.2014 7.54098 76.5472 8.48313C76.893 9.42878 77.0677 10.4865 77.0677 11.6633C77.0677 13.418 76.687 14.8855 75.929 16.0729C75.171 17.2567 74.1091 18.1113 72.7434 18.6296L79.0552 25.018H73.8681V25.0145Z" fill="white"/>
<path d="M80.9624 25.0145V4H99.6708V7.67053H84.5951V21.344H99.7023V25.0145H80.9624ZM87.2742 15.8802V12.7876H98.8919V15.8802H87.2742Z" fill="white"/>
<path d="M123.916 25.0145L115.124 16.4301L106.419 25.0145H101.662L112.906 14.087L102.469 4H107.513L115.498 11.7754L123.367 4H128.125L117.688 14.087L129.047 25.0145H123.916Z" fill="white"/>
</svg>
