  <svg
    width="20"
    height="20"
    viewBox="0 0 20 20"
    fill="none"
    xmlns="http://www.w3.org/2000/svg"
  >
    <g clip-path="url(#clip0)">
      <path
        d="M18.6954 17.4141L17.0704 15.293V9.01172C17.0704 5.91797 15.086 3.28516 12.3243 2.30469C12.3126 1.03125 11.2774 0 10.0001 0C8.74224 0 7.7188 1.00781 7.68364 2.25781C4.85943 3.20703 2.81646 5.875 2.81646 9.01172V15.2969L1.29693 17.4219C1.20318 17.5547 1.19146 17.7266 1.26568 17.8711C1.3399 18.0156 1.48833 18.1055 1.6524 18.1055H7.72271C7.92583 19.1797 8.86724 19.9922 10.0001 19.9922C11.1329 19.9922 12.0743 19.1758 12.2774 18.1055H18.3477C18.5118 18.1055 18.6641 18.0117 18.7344 17.8633C18.8125 17.7227 18.793 17.5469 18.6954 17.4141ZM10.0001 0.867188C10.7071 0.867188 11.2969 1.375 11.4258 2.04297C10.9454 1.94141 10.4493 1.88672 9.94146 1.88672C9.47661 1.88672 9.01958 1.93359 8.57818 2.01953C8.7188 1.36328 9.30083 0.867188 10.0001 0.867188ZM10.0001 19.1328C9.35161 19.1328 8.80864 18.7031 8.62114 18.1133H11.379C11.1954 18.6992 10.6485 19.1328 10.0001 19.1328ZM2.49615 17.2422L3.60552 15.6875C3.66021 15.6133 3.68755 15.5273 3.68755 15.4336V9.01172C3.68755 5.5625 6.49615 2.75391 9.94536 2.75391C13.3946 2.75391 16.2032 5.5625 16.2032 9.01172V15.4375C16.2032 15.5313 16.2344 15.625 16.293 15.7031L17.4727 17.2422H2.49615Z"
        fill="white"
        stroke="white"
        stroke-width="0.5"
        stroke-miterlimit="10"
      />
      <path
        d="M14.7969 14.6602H5.20312C4.96484 14.6602 4.76953 14.8555 4.76953 15.0938C4.76953 15.332 4.96484 15.5273 5.20312 15.5273H14.7969C15.0352 15.5273 15.2305 15.332 15.2305 15.0938C15.2344 14.8555 15.0391 14.6602 14.7969 14.6602Z"
        fill="white"
        stroke="white"
        stroke-width="0.5"
        stroke-miterlimit="10"
      />
      <path
        d="M5.20304 10.2969C5.21476 10.2969 5.23038 10.2969 5.2421 10.2969C5.48038 10.2774 5.65617 10.0626 5.63664 9.82428C5.62101 9.66412 5.32414 5.88678 8.66398 5.07819C8.89835 5.0235 9.03898 4.78522 8.98429 4.55475C8.9296 4.32037 8.69523 4.17975 8.46085 4.23444C4.40226 5.2149 4.76945 9.85553 4.77335 9.9024C4.79289 10.1251 4.98039 10.2969 5.20304 10.2969Z"
        fill="white"
        stroke="white"
        stroke-width="0.5"
        stroke-miterlimit="10"
      />
    </g>
    <defs>
      <clipPath id="clip0">
        <rect width="20" height="20" fill="white" />
      </clipPath>
    </defs>
  </svg>
