  <svg
    width="22"
    height="20"
    viewBox="0 0 22 20"
    fill="none"
    xmlns="http://www.w3.org/2000/svg"
  >
    <path
      d="M21.3123 16.6369C21.3123 18.1122 20.1063 19.3182 18.6316 19.3182H3.7863C2.31102 19.3182 1.10303 18.1115 1.10303 16.6369V8.4515C1.10303 6.97687 2.31167 5.76953 3.7863 5.76953H18.631C20.1063 5.76953 21.3116 6.97687 21.3116 8.4515V16.6369H21.3123Z"
      stroke="white"
      stroke-width="1.3"
      stroke-miterlimit="10"
      stroke-linecap="round"
    />
    <path
      d="M2.78906 5.96578L14.322 1.18074C14.322 1.18074 16.5444 0.333258 17.1546 2.30855C17.8137 4.44813 18.2615 5.76955 18.2615 5.76955"
      stroke="white"
      stroke-width="1.3"
      stroke-miterlimit="10"
      stroke-linecap="round"
    />
    <path
      d="M17.2449 14.2366C18.1792 14.2366 18.9366 13.4792 18.9366 12.5449C18.9366 11.6106 18.1792 10.8531 17.2449 10.8531C16.3106 10.8531 15.5532 11.6106 15.5532 12.5449C15.5532 13.4792 16.3106 14.2366 17.2449 14.2366Z"
      stroke="white"
      stroke-width="1.3"
      stroke-miterlimit="10"
      stroke-linecap="round"
    />
  </svg>

